HIERARCHY
ROOT newVegas:Hips
{
	OFFSET 0.000000 96.479958 0.000000
	CHANNELS 6 Xposition Yposition Zposition Xrotation Yrotation Zrotation
	JOINT newVegas:Pelvis
	{
		OFFSET 0.000000 0.000000 0.000000
		CHANNELS 3 Xrotation Yrotation Zrotation
		JOINT newVegas:LeftUpLeg
		{
			OFFSET 18.735201 -5.666702 -4.541200
			CHANNELS 3 Xrotation Yrotation Zrotation
			JOINT newVegas:LeftLeg
			{
				OFFSET -0.021200 -31.938179 0.493100
				CHANNELS 3 Xrotation Yrotation Zrotation
				JOINT newVegas:LeftFoot
				{
					OFFSET 0.021200 -31.938179 -4.336299
					CHANNELS 3 Xrotation Yrotation Zrotation
					JOINT newVegas:LeftToeBase
					{
						OFFSET 0.943001 -26.722000 15.023500
						CHANNELS 3 Xrotation Yrotation Zrotation
						End Site
						{
							OFFSET 0.000000 30.670183 0.000000
						}
					}
				}
				JOINT newVegas:Left_PantLeg
				{
					OFFSET 0.663870 -9.044666 -1.108900
					CHANNELS 3 Xrotation Yrotation Zrotation
					End Site
					{
						OFFSET 1.415995 20.635357 0.000000
					}
				}
			}
		}
		JOINT newVegas:RightUpLeg
		{
			OFFSET -18.735201 -5.666702 -4.541200
			CHANNELS 3 Xrotation Yrotation Zrotation
			JOINT newVegas:RightLeg
			{
				OFFSET 0.018946 -31.938133 0.493100
				CHANNELS 3 Xrotation Yrotation Zrotation
				JOINT newVegas:RightFoot
				{
					OFFSET -0.018946 -31.938126 -4.336299
					CHANNELS 3 Xrotation Yrotation Zrotation
					JOINT newVegas:RightToeBase
					{
						OFFSET -0.943001 -26.722004 15.023500
						CHANNELS 3 Xrotation Yrotation Zrotation
						End Site
						{
							OFFSET 0.000000 30.670187 0.000000
						}
					}
				}
				JOINT newVegas:Right_PantLeg
				{
					OFFSET -0.661674 -9.044716 -1.108900
					CHANNELS 3 Xrotation Yrotation Zrotation
					End Site
					{
						OFFSET -1.415958 20.635269 0.000000
					}
				}
			}
		}
	}
	JOINT newVegas:Spine
	{
		OFFSET 0.000000 10.199997 -0.299500
		CHANNELS 3 Xrotation Yrotation Zrotation
		JOINT newVegas:Spine1
		{
			OFFSET 0.000000 11.900002 -1.516600
			CHANNELS 3 Xrotation Yrotation Zrotation
			JOINT newVegas:Spine2
			{
				OFFSET 0.000000 13.600006 -2.842500
				CHANNELS 3 Xrotation Yrotation Zrotation
				JOINT newVegas:Neck
				{
					OFFSET 0.000000 9.624100 -2.890100
					CHANNELS 3 Xrotation Yrotation Zrotation
					JOINT newVegas:Head
					{
						OFFSET 0.000000 14.068802 -1.351900
						CHANNELS 3 Xrotation Yrotation Zrotation
						JOINT newVegas:Hair_Back
						{
							OFFSET 0.000000 3.231903 -17.524799
							CHANNELS 3 Xrotation Yrotation Zrotation
							End Site
							{
								OFFSET 0.000000 19.849884 0.000000
							}
						}
						JOINT newVegas:Hair_Front
						{
							OFFSET 0.000000 31.260406 4.573800
							CHANNELS 3 Xrotation Yrotation Zrotation
							JOINT newVegas:Hair_Front1
							{
								OFFSET 0.000000 2.284103 11.993300
								CHANNELS 3 Xrotation Yrotation Zrotation
								JOINT newVegas:Hair_Front2
								{
									OFFSET 0.000000 2.284103 11.993300
									CHANNELS 3 Xrotation Yrotation Zrotation
									End Site
									{
										OFFSET 0.000000 12.208862 0.000000
									}
								}
							}
						}
						JOINT newVegas:Jowel
						{
							OFFSET 0.000000 -7.458206 6.864100
							CHANNELS 3 Xrotation Yrotation Zrotation
							End Site
							{
								OFFSET 0.000000 19.849884 0.000000
							}
						}
					}
				}
				JOINT newVegas:LeftShoulder
				{
					OFFSET 15.263000 10.923401 -0.547700
					CHANNELS 3 Xrotation Yrotation Zrotation
					JOINT newVegas:LeftArm
					{
						OFFSET 25.438599 -2.830597 -13.032500
						CHANNELS 3 Xrotation Yrotation Zrotation
						JOINT newVegas:LeftForeArm
						{
							OFFSET 29.960503 0.000000 0.000000
							CHANNELS 3 Xrotation Yrotation Zrotation
							JOINT newVegas:LeftHand
							{
								OFFSET 27.849251 0.000000 0.000000
								CHANNELS 3 Xrotation Yrotation Zrotation
								JOINT newVegas:LeftHandThumb1
								{
									OFFSET 4.487587 -3.305161 6.305391
									CHANNELS 3 Xrotation Yrotation Zrotation
									JOINT newVegas:LeftHandThumb2
									{
										OFFSET 5.480453 -3.164139 3.164143
										CHANNELS 3 Xrotation Yrotation Zrotation
										JOINT newVegas:LeftHandThumb3
										{
											OFFSET 5.159721 -2.978973 2.978967
											CHANNELS 3 Xrotation Yrotation Zrotation
											End Site
											{
												OFFSET 2.494507 5.926697 1.738678
											}
										}
									}
								}
								JOINT newVegas:LeftHandIndex1
								{
									OFFSET 18.578728 -0.527832 5.208049
									CHANNELS 3 Xrotation Yrotation Zrotation
									JOINT newVegas:LeftHandIndex2
									{
										OFFSET 3.192009 0.000000 0.000000
										CHANNELS 3 Xrotation Yrotation Zrotation
										JOINT newVegas:LeftHandIndex3
										{
											OFFSET 3.835129 0.000000 0.000000
											CHANNELS 3 Xrotation Yrotation Zrotation
											End Site
											{
												OFFSET -0.034599 3.816971 0.371180
											}
										}
									}
								}
								JOINT newVegas:LeftHandMiddle1
								{
									OFFSET 18.476105 0.000000 0.000000
									CHANNELS 3 Xrotation Yrotation Zrotation
									JOINT newVegas:LeftHandMiddle2
									{
										OFFSET 3.324875 0.000000 0.000000
										CHANNELS 3 Xrotation Yrotation Zrotation
										JOINT newVegas:LeftHandMiddle3
										{
											OFFSET 4.596550 0.000000 0.000000
											CHANNELS 3 Xrotation Yrotation Zrotation
											End Site
											{
												OFFSET 0.057701 4.578827 0.399218
											}
										}
									}
								}
								JOINT newVegas:LeftHandRing1
								{
									OFFSET 17.732719 0.121887 -4.201567
									CHANNELS 3 Xrotation Yrotation Zrotation
									JOINT newVegas:LeftHandRing2
									{
										OFFSET 2.733170 0.000000 0.000000
										CHANNELS 3 Xrotation Yrotation Zrotation
										JOINT newVegas:LeftHandRing3
										{
											OFFSET 3.178268 0.000000 0.000000
											CHANNELS 3 Xrotation Yrotation Zrotation
											End Site
											{
												OFFSET 0.119102 3.170624 0.185394
											}
										}
									}
								}
								JOINT newVegas:LeftHandPinky1
								{
									OFFSET 15.989624 -0.606689 -7.535461
									CHANNELS 3 Xrotation Yrotation Zrotation
									JOINT newVegas:LeftHandPinky2
									{
										OFFSET 2.538986 0.000000 0.000000
										CHANNELS 3 Xrotation Yrotation Zrotation
										JOINT newVegas:LeftHandPinky3
										{
											OFFSET 2.593102 0.000000 0.000000
											CHANNELS 3 Xrotation Yrotation Zrotation
											End Site
											{
												OFFSET -0.150902 2.584198 0.152708
											}
										}
									}
								}
							}
							JOINT newVegas:Left_Sleeve
							{
								OFFSET 0.267448 -0.649796 0.577675
								CHANNELS 3 Xrotation Yrotation Zrotation
								End Site
								{
									OFFSET 0.000000 15.991241 0.000000
								}
							}
							JOINT newVegas:Left_CapeC
							{
								OFFSET 15.715958 -8.608795 -6.935905
								CHANNELS 3 Xrotation Yrotation Zrotation
								JOINT newVegas:Left_CapeC1
								{
									OFFSET 0.000000 -8.688499 0.000000
									CHANNELS 3 Xrotation Yrotation Zrotation
									End Site
									{
										OFFSET 0.000000 8.688499 0.000000
									}
								}
							}
						}
						JOINT newVegas:Left_CapeB
						{
							OFFSET 26.118385 -8.608795 -7.079235
							CHANNELS 3 Xrotation Yrotation Zrotation
							JOINT newVegas:Left_CapeB1
							{
								OFFSET 0.000000 -8.688499 0.000000
								CHANNELS 3 Xrotation Yrotation Zrotation
								End Site
								{
									OFFSET 0.000000 8.688499 0.000000
								}
							}
						}
						JOINT newVegas:Left_CapeA
						{
							OFFSET 5.115639 -8.608795 -10.395809
							CHANNELS 3 Xrotation Yrotation Zrotation
							JOINT newVegas:Left_CapeA1
							{
								OFFSET 0.000000 -8.688499 0.000000
								CHANNELS 3 Xrotation Yrotation Zrotation
								End Site
								{
									OFFSET 0.000000 8.688499 0.000000
								}
							}
						}
					}
				}
				JOINT newVegas:RightShoulder
				{
					OFFSET -15.263000 10.923401 -0.547700
					CHANNELS 3 Xrotation Yrotation Zrotation
					JOINT newVegas:RightArm
					{
						OFFSET -25.438599 -2.830597 -13.032500
						CHANNELS 3 Xrotation Yrotation Zrotation
						JOINT newVegas:RightForeArm
						{
							OFFSET -29.960503 0.000000 0.000000
							CHANNELS 3 Xrotation Yrotation Zrotation
							JOINT newVegas:RightHand
							{
								OFFSET -27.849251 0.000000 0.000000
								CHANNELS 3 Xrotation Yrotation Zrotation
								JOINT newVegas:RightHandThumb1
								{
									OFFSET -4.487587 -3.305161 6.305391
									CHANNELS 3 Xrotation Yrotation Zrotation
									JOINT newVegas:RightHandThumb2
									{
										OFFSET -5.480453 -3.164139 3.164143
										CHANNELS 3 Xrotation Yrotation Zrotation
										JOINT newVegas:RightHandThumb3
										{
											OFFSET -5.159721 -2.978973 2.978967
											CHANNELS 3 Xrotation Yrotation Zrotation
											End Site
											{
												OFFSET -2.494507 5.926697 1.738678
											}
										}
									}
								}
								JOINT newVegas:RightHandIndex1
								{
									OFFSET -18.578728 -0.527832 5.208049
									CHANNELS 3 Xrotation Yrotation Zrotation
									JOINT newVegas:RightHandIndex2
									{
										OFFSET -3.192009 0.000000 0.000000
										CHANNELS 3 Xrotation Yrotation Zrotation
										JOINT newVegas:RightHandIndex3
										{
											OFFSET -3.835129 0.000000 0.000000
											CHANNELS 3 Xrotation Yrotation Zrotation
											End Site
											{
												OFFSET 0.034599 3.816971 0.371180
											}
										}
									}
								}
								JOINT newVegas:RightHandMiddle1
								{
									OFFSET -18.476105 0.000000 0.000000
									CHANNELS 3 Xrotation Yrotation Zrotation
									JOINT newVegas:RightHandMiddle2
									{
										OFFSET -3.324875 0.000000 0.000000
										CHANNELS 3 Xrotation Yrotation Zrotation
										JOINT newVegas:RightHandMiddle3
										{
											OFFSET -4.596550 0.000000 0.000000
											CHANNELS 3 Xrotation Yrotation Zrotation
											End Site
											{
												OFFSET -0.057701 4.578827 0.399218
											}
										}
									}
								}
								JOINT newVegas:RightHandRing1
								{
									OFFSET -17.732719 0.121887 -4.201567
									CHANNELS 3 Xrotation Yrotation Zrotation
									JOINT newVegas:RightHandRing2
									{
										OFFSET -2.733170 0.000000 0.000000
										CHANNELS 3 Xrotation Yrotation Zrotation
										JOINT newVegas:RightHandRing3
										{
											OFFSET -3.178268 0.000000 0.000000
											CHANNELS 3 Xrotation Yrotation Zrotation
											End Site
											{
												OFFSET -0.119102 3.170624 0.185394
											}
										}
									}
								}
								JOINT newVegas:RightHandPinky1
								{
									OFFSET -15.989624 -0.606689 -7.535461
									CHANNELS 3 Xrotation Yrotation Zrotation
									JOINT newVegas:RightHandPinky2
									{
										OFFSET -2.538986 0.000000 0.000000
										CHANNELS 3 Xrotation Yrotation Zrotation
										JOINT newVegas:RightHandPinky3
										{
											OFFSET -2.593102 0.000000 0.000000
											CHANNELS 3 Xrotation Yrotation Zrotation
											End Site
											{
												OFFSET 0.150902 2.584198 0.152708
											}
										}
									}
								}
							}
							JOINT newVegas:Right_CapeC
							{
								OFFSET -15.715958 -8.608795 -6.935905
								CHANNELS 3 Xrotation Yrotation Zrotation
								JOINT newVegas:Right_CapeC1
								{
									OFFSET 0.000000 -8.688499 0.000000
									CHANNELS 3 Xrotation Yrotation Zrotation
									End Site
									{
										OFFSET 0.000000 8.688499 0.000000
									}
								}
							}
							JOINT newVegas:Right_Sleeve
							{
								OFFSET -0.267448 -0.649994 0.577675
								CHANNELS 3 Xrotation Yrotation Zrotation
								End Site
								{
									OFFSET 0.000000 15.991302 0.000000
								}
							}
						}
						JOINT newVegas:Right_CapeA
						{
							OFFSET -5.115540 -8.608795 -10.395824
							CHANNELS 3 Xrotation Yrotation Zrotation
							JOINT newVegas:Right_CapeA1
							{
								OFFSET 0.000000 -8.688499 0.000000
								CHANNELS 3 Xrotation Yrotation Zrotation
								End Site
								{
									OFFSET 0.000000 8.688499 0.000000
								}
							}
						}
						JOINT newVegas:Right_CapeB
						{
							OFFSET -26.118187 -8.608795 -7.079266
							CHANNELS 3 Xrotation Yrotation Zrotation
							JOINT newVegas:Right_CapeB1
							{
								OFFSET 0.000000 -8.688499 0.000000
								CHANNELS 3 Xrotation Yrotation Zrotation
								End Site
								{
									OFFSET 0.000000 8.688499 0.000000
								}
							}
						}
					}
				}
				JOINT newVegas:Left_Collar
				{
					OFFSET 18.625099 8.655502 8.828100
					CHANNELS 3 Xrotation Yrotation Zrotation
					JOINT newVegas:Left_Collar1
					{
						OFFSET 14.783401 10.540405 -1.259500
						CHANNELS 3 Xrotation Yrotation Zrotation
						End Site
						{
							OFFSET 0.000000 18.199875 0.000000
						}
					}
				}
				JOINT newVegas:Collar_Back
				{
					OFFSET 0.000000 15.630707 -20.132601
					CHANNELS 3 Xrotation Yrotation Zrotation
					End Site
					{
						OFFSET 0.000000 22.523010 0.000000
					}
				}
				JOINT newVegas:Left_Peck
				{
					OFFSET 17.239599 -5.132599 25.482599
					CHANNELS 3 Xrotation Yrotation Zrotation
					End Site
					{
						OFFSET 0.000000 22.523010 0.000000
					}
				}
				JOINT newVegas:Right_Peck
				{
					OFFSET -17.239599 -5.132202 25.482599
					CHANNELS 3 Xrotation Yrotation Zrotation
					End Site
					{
						OFFSET 0.000000 22.523010 0.000000
					}
				}
				JOINT newVegas:Right_Collar
				{
					OFFSET -18.625099 8.655792 8.828100
					CHANNELS 3 Xrotation Yrotation Zrotation
					JOINT newVegas:Right_Collar1
					{
						OFFSET -14.783401 10.539993 -1.259500
						CHANNELS 3 Xrotation Yrotation Zrotation
						End Site
						{
							OFFSET 0.000000 18.199631 0.000000
						}
					}
				}
			}
		}
		JOINT newVegas:Belly
		{
			OFFSET 0.000000 -6.540398 9.014299
			CHANNELS 3 Xrotation Yrotation Zrotation
			End Site
			{
				OFFSET 0.000000 11.566666 0.000000
			}
		}
	}
	JOINT newVegas:ElvisFacialAnim_Joint
	{
		OFFSET 1.000000 -95.330101 -8.825800
		CHANNELS 3 Xrotation Yrotation Zrotation
		End Site
		{
			OFFSET 0.000000 35.315800 0.000000
		}
	}
}
MOTION
Frames: 4
Frame Time: 0.016667
0.284223 93.212227 4.448350 -2.728465 3.554371 0.772045 0.000000 -0.000000 -0.000000 -5.013583 11.066556 6.646041 24.178735 -4.384603 1.236074 -16.708405 1.297354 -5.626251 -0.000000 0.000000 0.000000 -0.000001 0.000001 -0.000000 4.133883 -4.820339 -4.148564 20.060583 -8.888820 4.252453 -19.600321 -19.448697 3.073758 0.000000 -0.000002 -0.000000 0.000002 0.000001 -0.000000 -0.566808 -0.751004 -3.901987 1.149532 -0.103991 1.499583 1.152621 -0.098084 1.497723 3.383357 0.101585 0.156566 3.383360 0.101583 0.156566 -0.000000 -0.000000 -0.000000 3.383359 0.101584 0.156566 3.383434 0.101585 0.156566 0.000001 0.000000 -0.000000 -0.000000 -0.000000 0.000000 6.883882 -26.760616 -3.764300 5.911086 4.517237 -79.896356 -0.000002 -18.872940 -0.000002 -18.698690 1.922927 7.511045 -1.708908 11.916060 7.382941 4.613906 16.205068 1.361362 -0.000000 -0.000003 0.000000 0.412193 2.350823 -19.887624 0.808845 3.242973 -28.002744 -0.000001 -0.000000 0.000001 0.585508 2.783214 -23.755707 0.716288 3.062832 -26.319941 -0.000000 -0.000000 0.000000 0.650671 2.926625 -25.063990 1.383130 4.144249 -36.899049 0.000001 -0.000000 -0.000005 2.588338 6.753852 -26.641465 1.376455 0.049900 -37.011149 0.000001 -0.000002 -0.000001 0.000000 0.000000 0.000000 0.000000 0.000000 0.000000 -0.000001 0.000000 0.000000 -0.000001 0.000000 -0.000000 -0.000001 0.000000 -0.000000 -0.000001 0.000000 -0.000000 -0.000001 0.000000 -0.000000 0.447593 -3.990810 8.744684 8.902104 19.263657 69.814096 -0.000001 13.419887 -0.000017 -28.538467 -11.177653 5.826646 -2.036758 -12.208786 -7.947284 5.412854 -17.299274 -0.815940 0.000001 -0.000001 0.000001 0.402315 -2.335095 19.548589 0.985295 -3.573151 30.823452 -0.000000 -0.000000 0.000003 0.542486 -2.697155 22.740625 1.054145 -3.685865 31.911108 0.000001 0.000000 0.000002 0.533151 -2.674797 22.541427 1.506300 -4.326606 38.375848 0.000000 0.000003 -0.000002 0.306499 -2.045518 17.041974 1.637522 -4.486870 40.083696 0.000000 -0.000002 0.000001 0.000000 0.000000 -0.000000 0.000000 0.000000 0.000000 0.000000 0.000001 -0.000000 -0.000000 -0.000001 -0.000000 0.000000 -0.000001 0.000001 -0.000000 -0.000001 -0.000000 0.000000 -0.000001 0.000001 -0.000000 0.000000 -0.000000 -0.000000 0.000000 -0.000000 -0.000000 0.000000 -0.000000 -0.000000 0.000000 -0.000000 -0.000000 0.000000 -0.000000 -0.000000 0.000000 -0.000000 -0.000000 0.000000 -0.000000 -0.000000 -0.000000 0.000000 0.000000 -0.000000 -0.000000 
0.277460 93.208374 4.463456 -2.714766 3.542788 0.767456 -0.000000 0.000000 0.000000 -5.013776 11.069086 6.656693 24.181974 -4.378210 1.235163 -16.725158 1.300324 -5.635727 -0.000000 -0.000001 -0.000000 0.000002 0.000002 0.000000 4.133186 -4.821429 -4.144929 20.055075 -8.888428 4.259512 -19.609676 -19.435358 3.068301 0.000000 -0.000002 -0.000000 0.000000 0.000000 -0.000001 -0.565957 -0.755573 -3.902810 1.145595 -0.104598 1.502204 1.148703 -0.098714 1.500344 3.376725 0.105913 0.152720 3.376693 0.105913 0.152718 0.000000 0.000000 -0.000000 3.376726 0.105911 0.152720 3.376793 0.105913 0.152720 0.000000 -0.000000 0.000000 0.000000 0.000000 -0.000000 6.880136 -26.751010 -3.764938 5.911938 4.505763 -79.903596 0.000003 -18.867745 0.000004 -18.716270 1.935614 7.508169 -1.708909 11.916061 7.382941 4.613905 16.205066 1.361365 0.000000 0.000001 -0.000003 0.412526 2.351747 -19.895767 0.808928 3.243121 -28.004148 0.000001 -0.000000 0.000000 0.585821 2.783933 -23.762220 0.716464 3.063186 -26.323228 0.000000 -0.000001 0.000002 0.650939 2.927197 -25.069286 1.383310 4.144487 -36.901531 0.000000 -0.000001 -0.000001 2.588727 6.754103 -26.644870 1.376648 0.050140 -37.013717 -0.000001 -0.000001 -0.000004 0.000000 -0.000000 0.000001 0.000000 -0.000000 0.000001 -0.000001 -0.000000 0.000001 0.000000 0.000000 0.000000 0.000001 0.000000 0.000001 0.000000 0.000000 0.000000 0.000001 -0.000000 0.000000 0.447802 -3.989255 8.743097 8.906553 19.272808 69.810325 0.000000 13.433803 -0.000005 -28.531162 -11.162463 5.826419 -2.036761 -12.208784 -7.947281 5.412860 -17.299290 -0.815949 0.000002 0.000001 -0.000000 0.402916 -2.336786 19.563325 0.985634 -3.573721 30.828926 0.000000 0.000001 0.000004 0.543010 -2.698403 22.751451 1.054459 -3.686364 31.915917 -0.000001 -0.000000 0.000006 0.533453 -2.675516 22.547838 1.506557 -4.326938 38.379328 -0.000000 -0.000001 0.000002 0.306661 -2.046018 17.046306 1.637632 -4.486996 40.085137 0.000000 0.000002 -0.000000 0.000000 0.000000 -0.000000 0.000000 -0.000000 -0.000001 -0.000000 0.000000 -0.000000 0.000002 0.000001 -0.000000 0.000002 0.000001 -0.000000 0.000002 0.000001 -0.000000 0.000002 0.000001 -0.000000 -0.000000 -0.000000 0.000000 -0.000000 -0.000000 0.000000 -0.000000 -0.000000 0.000000 -0.000000 -0.000000 0.000000 -0.000000 -0.000000 0.000000 -0.000000 -0.000000 0.000000 -0.000000 -0.000000 0.000000 0.000000 -0.000000 0.000000 -0.000000 0.000000 0.000000 
0.270185 93.204704 4.479316 -2.701928 3.531737 0.762452 0.000000 0.000000 -0.000000 -5.012433 11.072545 6.668725 24.184385 -4.373211 1.233891 -16.742008 1.303355 -5.645352 -0.000000 0.000000 -0.000000 0.000001 -0.000000 -0.000000 4.136783 -4.822184 -4.139443 20.045149 -8.888362 4.266068 -19.618308 -19.423569 3.062190 0.000000 -0.000000 0.000000 0.000000 0.000000 -0.000001 -0.564155 -0.762258 -3.903709 1.142373 -0.105479 1.505871 1.145510 -0.099612 1.504005 3.370625 0.109558 0.149787 3.370653 0.109558 0.149788 -0.000000 -0.000000 0.000000 3.370810 0.109555 0.149789 3.370733 0.109557 0.149789 -0.000000 0.000000 0.000000 -0.000000 -0.000000 -0.000000 6.876204 -26.741162 -3.765900 5.916046 4.497561 -79.909819 0.000002 -18.862138 0.000015 -18.729880 1.945436 7.506001 -1.708910 11.916056 7.382941 4.613905 16.205069 1.361362 -0.000001 -0.000003 -0.000001 0.412731 2.352317 -19.900781 0.808944 3.243157 -28.004501 0.000000 0.000001 -0.000000 0.586071 2.784498 -23.767339 0.716601 3.063465 -26.325824 0.000001 -0.000001 -0.000001 0.651259 2.927880 -25.075522 1.383526 4.144773 -36.904530 -0.000001 -0.000001 0.000001 2.589487 6.754580 -26.651268 1.377013 0.050623 -37.018655 -0.000001 0.000000 0.000001 0.000002 0.000000 0.000000 0.000002 0.000000 0.000000 0.000001 0.000000 0.000000 0.000002 -0.000001 0.000000 0.000002 -0.000001 -0.000000 0.000002 -0.000001 0.000000 0.000002 -0.000001 0.000000 0.447137 -3.992707 8.741734 8.916817 19.279765 69.800818 0.000002 13.450137 0.000014 -28.539992 -11.159931 5.821344 -2.036764 -12.208782 -7.947307 5.412867 -17.299367 -0.815951 0.000001 0.000001 -0.000000 0.403551 -2.338565 19.578867 0.986001 -3.574340 30.834831 0.000000 -0.000000 0.000001 0.543659 -2.699941 22.764353 1.054833 -3.686963 31.921736 -0.000000 0.000000 -0.000001 0.533917 -2.676640 22.557847 1.506959 -4.327444 38.384611 -0.000001 0.000001 0.000000 0.307026 -2.047219 17.056676 1.638071 -4.487522 40.090793 0.000000 -0.000002 0.000001 -0.000003 0.000000 -0.000000 -0.000003 0.000000 -0.000001 -0.000003 0.000000 -0.000000 -0.000000 0.000000 0.000000 0.000000 0.000000 0.000000 -0.000000 0.000000 0.000000 0.000000 -0.000000 0.000000 -0.000000 0.000000 -0.000000 -0.000000 0.000000 -0.000000 -0.000000 0.000000 -0.000000 -0.000000 0.000000 -0.000000 -0.000000 0.000000 -0.000000 -0.000000 0.000000 -0.000000 -0.000000 0.000000 -0.000000 0.000000 -0.000000 0.000000 0.000000 0.000000 -0.000000 
0.262759 93.201263 4.495944 -2.690639 3.521598 0.757665 0.000000 0.000000 -0.000000 -5.008281 11.076106 6.680363 24.185256 -4.368709 1.233417 -16.758583 1.306516 -5.655559 0.000000 0.000001 0.000000 -0.000003 0.000001 -0.000000 4.145223 -4.823358 -4.132555 20.031471 -8.889069 4.272114 -19.626690 -19.413795 3.055575 0.000000 -0.000002 0.000000 0.000001 0.000000 -0.000000 -0.561842 -0.770633 -3.904911 1.140142 -0.106575 1.510630 1.143316 -0.100721 1.508753 3.365227 0.112615 0.147447 3.365228 0.112617 0.147447 0.000000 -0.000000 -0.000000 3.365229 0.112613 0.147448 3.365223 0.112618 0.147447 0.000000 -0.000000 0.000000 0.000000 -0.000000 -0.000000 6.872127 -26.731021 -3.767448 5.921147 4.490973 -79.912790 -0.000005 -18.857095 0.000007 -18.728882 1.952515 7.499005 -1.708908 11.916058 7.382941 4.613903 16.205069 1.361364 0.000000 0.000000 -0.000004 0.412751 2.352369 -19.901223 0.808884 3.243036 -28.003347 0.000001 -0.000001 -0.000001 0.586207 2.784803 -23.770097 0.716675 3.063616 -26.327239 0.000001 -0.000000 0.000002 0.651603 2.928615 -25.082261 1.383762 4.145083 -36.907784 0.000000 -0.000001 0.000001 2.590592 6.755285 -26.660682 1.377529 0.051318 -37.025895 0.000001 -0.000003 0.000000 -0.000000 0.000000 -0.000000 -0.000000 0.000000 -0.000000 -0.000001 0.000000 -0.000000 -0.000001 0.000000 0.000000 -0.000001 0.000000 -0.000000 -0.000001 0.000000 0.000000 -0.000001 -0.000000 0.000000 0.445813 -3.999973 8.740760 8.930336 19.284665 69.787390 -0.000004 13.466609 -0.000003 -28.561257 -11.168550 5.813768 -2.036757 -12.208786 -7.947258 5.412859 -17.299520 -0.816004 0.000002 0.000000 0.000003 0.404190 -2.340369 19.594583 0.986385 -3.574977 30.840975 -0.000001 -0.000000 0.000005 0.544395 -2.701694 22.778701 1.055264 -3.687652 31.928430 -0.000001 0.000001 -0.000005 0.534510 -2.678063 22.570500 1.507464 -4.328077 38.391284 0.000001 -0.000001 0.000002 0.307574 -2.049019 17.072048 1.638675 -4.488227 40.098463 -0.000001 0.000001 0.000003 0.000003 -0.000000 -0.000000 0.000001 -0.000000 0.000000 0.000003 0.000000 0.000000 0.000002 0.000001 0.000001 0.000002 0.000001 0.000001 0.000002 0.000001 0.000001 0.000002 0.000001 0.000001 -0.000000 0.000000 -0.000000 -0.000000 0.000000 -0.000000 -0.000000 0.000000 -0.000000 -0.000000 0.000000 -0.000000 -0.000000 0.000000 -0.000000 -0.000000 0.000000 -0.000000 -0.000000 0.000000 -0.000000 -0.000000 -0.000000 0.000000 0.000000 0.000000 -0.000000 
